<svg xmlns="http://www.w3.org/2000/svg" version="1.1" xmlns:xlink="http://www.w3.org/1999/xlink" width="200" height="200"><svg xmlns="http://www.w3.org/2000/svg" version="1.1" xmlns:xlink="http://www.w3.org/1999/xlink" viewBox="0 0 200 200"><rect width="200" height="200" fill="url('#gradient')"></rect><defs><linearGradient id="SvgjsLinearGradient1001" gradientTransform="rotate(45 0.5 0.5)"><stop offset="0%" stop-color="#bf96ff"></stop><stop offset="100%" stop-color="#2e00e7"></stop></linearGradient></defs><g><g fill="#000000" transform="matrix(8.787128230131643,0,0,8.787128230131643,2.5908132995412956,161.59948571236293)" stroke="#64637b" stroke-width="0"><path d="M4.50-14.22L4.50-2.64L10.47-2.64L10.47 0L1.07 0L1.07-14.22L4.50-14.22ZM18.02 0L17.92-1.14Q16.88 0.20 15.10 0.20L15.10 0.20Q13.36 0.20 12.47-0.82Q11.57-1.83 11.57-3.72L11.57-3.72L11.57-10.57L14.86-10.57L14.86-3.70Q14.86-2.34 16.18-2.34L16.18-2.34Q17.31-2.34 17.79-3.15L17.79-3.15L17.79-10.57L21.10-10.57L21.10 0L18.02 0Z"></path></g></g></svg><style>@media (prefers-color-scheme: light) { :root { filter: none; } }
@media (prefers-color-scheme: dark) { :root { filter: none; } }
</style></svg>